<?xml version="1.0" standalone="no"?>
<!DOCTYPE svg PUBLIC "-//W3C//DTD SVG 20010904//EN"
 "http://www.w3.org/TR/2001/REC-SVG-20010904/DTD/svg10.dtd">
<svg version="1.0" xmlns="http://www.w3.org/2000/svg"
 width="700.000000pt" height="700.000000pt" viewBox="0 0 700.000000 700.000000"
 preserveAspectRatio="xMidYMid meet">
<metadata>
Created by potrace 1.14, written by Peter Selinger 2001-2017
</metadata>
<g transform="translate(0.000000,700.000000) scale(0.100000,-0.100000)"
fill="#000000" stroke="none">
<path d="M3157 4893 c-2 -5 -4 -83 -4 -175 l0 -168 276 0 276 0 175 -175 175
-175 -366 0 -365 0 -437 -175 -437 -175 -175 175 -175 175 -525 0 -525 0 0
-175 0 -175 393 -1 c359 -1 386 -2 323 -15 -319 -63 -575 -288 -672 -589 -34
-106 -39 -147 -38 -295 1 -104 6 -140 28 -213 87 -290 301 -510 579 -596 99
-30 148 -36 287 -35 140 2 246 27 363 85 222 111 390 318 452 555 8 31 17 59
19 61 2 3 86 -77 185 -176 l181 -181 262 0 263 0 355 710 355 710 89 -89 89
-89 -80 -76 c-138 -129 -222 -280 -269 -477 -3 -13 -7 -80 -9 -149 -3 -106 0
-139 21 -220 28 -110 78 -219 139 -305 47 -67 173 -190 211 -207 13 -6 24 -14
24 -18 0 -12 172 -88 250 -110 86 -25 271 -34 362 -19 95 15 208 56 298 106
105 59 256 206 313 303 39 68 93 197 102 246 2 16 8 40 11 54 13 53 12 246 -1
315 -73 372 -361 648 -738 706 -67 10 -193 8 -261 -4 -13 -3 -70 48 -197 176
-99 98 -179 180 -179 183 0 2 116 4 258 4 l257 0 0 258 c-1 219 -3 257 -15
254 -8 -2 -163 -77 -343 -168 -181 -90 -332 -164 -337 -164 -4 0 -125 117
-268 260 l-261 260 -345 0 c-190 0 -347 -3 -349 -7z m-1065 -1421 c163 -58
275 -172 330 -336 24 -70 27 -93 24 -171 -2 -49 -6 -99 -9 -110 -74 -283 -355
-456 -632 -390 -148 35 -283 142 -348 277 -148 306 19 663 348 744 72 17 218
10 287 -14z m3150 -1 c172 -60 297 -197 343 -375 14 -55 15 -190 2 -241 -57
-222 -242 -381 -467 -401 -314 -28 -589 239 -567 551 10 141 60 249 158 345
65 64 163 118 249 137 74 17 211 9 282 -16z"/>
</g>
</svg>
